<svg width="19" height="17" viewBox="0 0 19 17" fill="none" xmlns="http://www.w3.org/2000/svg">
<path d="M18.4074 2.39898C17.6117 0.779361 15.3195 -0.545784 12.6531 0.225745C11.379 0.590742 10.2674 1.37349 9.49987 2.4461C8.73233 1.37349 7.62069 0.590742 6.34659 0.225745C3.67432 -0.534005 1.38805 0.779361 0.592309 2.39898C-0.524106 4.66645 -0.0609123 7.21662 1.97001 9.97881C3.5615 12.1403 5.83589 14.3312 9.13763 16.8755C9.24197 16.9562 9.37051 17 9.50284 17C9.63517 17 9.7637 16.9562 9.86805 16.8755C13.1638 14.3371 15.4442 12.1638 17.0357 9.97881C19.0606 7.21662 19.5238 4.66645 18.4074 2.39898Z" fill="white"/>
</svg>
