<svg width="17" height="18" viewBox="0 0 17 18" fill="none" xmlns="http://www.w3.org/2000/svg">
<path d="M6.31429 0.5C7.98894 0.5 9.595 1.16525 10.7792 2.34941C11.9633 3.53357 12.6286 5.13963 12.6286 6.81429C12.6286 8.37829 12.0554 9.816 11.1131 10.9234L11.3754 11.1857H12.1429L17 16.0429L15.5429 17.5L10.6857 12.6429V11.8754L10.4234 11.6131C9.316 12.5554 7.87829 13.1286 6.31429 13.1286C4.63963 13.1286 3.03357 12.4633 1.84941 11.2792C0.665253 10.095 0 8.48894 0 6.81429C0 5.13963 0.665253 3.53357 1.84941 2.34941C3.03357 1.16525 4.63963 0.5 6.31429 0.5ZM6.31429 2.44286C3.88571 2.44286 1.94286 4.38571 1.94286 6.81429C1.94286 9.24286 3.88571 11.1857 6.31429 11.1857C8.74286 11.1857 10.6857 9.24286 10.6857 6.81429C10.6857 4.38571 8.74286 2.44286 6.31429 2.44286Z" fill="#8F8F8F"/>
</svg>
